<svg height="390pt" viewBox="0 0 390 390.632" width="390pt" xmlns="http://www.w3.org/2000/svg"><path d="m390.941406 22.632812-22.625-22.632812-52.023437 52.023438c-34.601563-29.351563-78.03125-45.390626-123.976563-45.390626-105.863281 0-192 86.128907-192 192 0 105.871094 86.136719 192 192 192 105.863282 0 192-86.128906 192-192 0-45.945312-16.039062-89.375-45.390625-123.984374zm-38.625 176c0 88.222657-71.777344 160-160 160s-160-71.777343-160-160c0-88.226562 71.777344-160 160-160 37.382813 0 72.800782 12.710938 101.296875 36.078126l-34.265625 34.265624c-19.246094-14.425781-42.488281-22.34375-67.03125-22.34375-61.761718 0-112 50.238282-112 112 0 61.757813 50.238282 112 112 112 61.757813 0 112-50.242187 112-112 0-24.535156-7.914062-47.785156-22.34375-67.023437l34.261719-34.265625c23.371094 28.488281 36.082031 63.894531 36.082031 101.289062zm-160 22.632813 66.785156-66.785156c8.589844 12.96875 13.214844 28.191406 13.214844 44.152343 0 44.109376-35.886718 80-80 80-44.113281 0-80-35.890624-80-80 0-44.113281 35.886719-80 80-80 15.960938 0 31.183594 4.625 44.152344 13.214844l-66.777344 66.785156zm0 0"/></svg>